<svg xmlns="http://www.w3.org/2000/svg" width="1040" height="500" viewBox="0 0 1040 500"><rect width="100%" height="100%" fill="#fbfcff"/><text x="320" y="34" style="font-family:Arial,Helvetica,sans-serif" font-size="24" font-weight="700" fill="#1f2937">Top Categorical Associations With Churn</text><text x="320" y="56" style="font-family:Arial,Helvetica,sans-serif" font-size="13" fill="#4b5563">Cramér's V on the 2 x k churn-by-category table. Higher is stronger association, but still modest overall.</text><text x="20" y="87" style="font-family:Arial,Helvetica,sans-serif" font-size="14" fill="#111827">hnd_webcap</text><rect x="320" y="70" width="610.0" height="24" rx="4" fill="#2f4b7c" opacity="0.88"/><text x="938.0" y="87" style="font-family:Arial,Helvetica,sans-serif" font-size="12" fill="#374151">0.091</text><text x="20" y="123" style="font-family:Arial,Helvetica,sans-serif" font-size="14" fill="#111827">crclscod</text><rect x="320" y="106" width="544.5956857199983" height="24" rx="4" fill="#2f4b7c" opacity="0.88"/><text x="872.5956857199983" y="123" style="font-family:Arial,Helvetica,sans-serif" font-size="12" fill="#374151">0.081</text><text x="20" y="159" style="font-family:Arial,Helvetica,sans-serif" font-size="14" fill="#111827">asl_flag</text><rect x="320" y="142" width="465.4663509273457" height="24" rx="4" fill="#2f4b7c" opacity="0.88"/><text x="793.4663509273457" y="159" style="font-family:Arial,Helvetica,sans-serif" font-size="12" fill="#374151">0.069</text><text x="20" y="195" style="font-family:Arial,Helvetica,sans-serif" font-size="14" fill="#111827">ethnic</text><rect x="320" y="178" width="435.4149375833845" height="24" rx="4" fill="#2f4b7c" opacity="0.88"/><text x="763.4149375833845" y="195" style="font-family:Arial,Helvetica,sans-serif" font-size="12" fill="#374151">0.065</text><text x="20" y="231" style="font-family:Arial,Helvetica,sans-serif" font-size="14" fill="#111827">dualband</text><rect x="320" y="214" width="362.10492453735964" height="24" rx="4" fill="#2f4b7c" opacity="0.88"/><text x="690.1049245373597" y="231" style="font-family:Arial,Helvetica,sans-serif" font-size="12" fill="#374151">0.054</text><text x="20" y="267" style="font-family:Arial,Helvetica,sans-serif" font-size="14" fill="#111827">area</text><rect x="320" y="250" width="350.2842655720715" height="24" rx="4" fill="#2f4b7c" opacity="0.88"/><text x="678.2842655720715" y="267" style="font-family:Arial,Helvetica,sans-serif" font-size="12" fill="#374151">0.052</text><text x="20" y="303" style="font-family:Arial,Helvetica,sans-serif" font-size="14" fill="#111827">refurb_new</text><rect x="320" y="286" width="213.9838112952497" height="24" rx="4" fill="#2f4b7c" opacity="0.88"/><text x="541.9838112952497" y="303" style="font-family:Arial,Helvetica,sans-serif" font-size="12" fill="#374151">0.032</text><text x="20" y="339" style="font-family:Arial,Helvetica,sans-serif" font-size="14" fill="#111827">infobase</text><rect x="320" y="322" width="199.77161620395273" height="24" rx="4" fill="#2f4b7c" opacity="0.88"/><text x="527.7716162039527" y="339" style="font-family:Arial,Helvetica,sans-serif" font-size="12" fill="#374151">0.030</text><text x="20" y="375" style="font-family:Arial,Helvetica,sans-serif" font-size="14" fill="#111827">marital</text><rect x="320" y="358" width="193.10897429853438" height="24" rx="4" fill="#2f4b7c" opacity="0.88"/><text x="521.1089742985343" y="375" style="font-family:Arial,Helvetica,sans-serif" font-size="12" fill="#374151">0.029</text><text x="20" y="411" style="font-family:Arial,Helvetica,sans-serif" font-size="14" fill="#111827">dwllsize</text><rect x="320" y="394" width="179.68318107008542" height="24" rx="4" fill="#2f4b7c" opacity="0.88"/><text x="507.6831810700854" y="411" style="font-family:Arial,Helvetica,sans-serif" font-size="12" fill="#374151">0.027</text><text x="20" y="447" style="font-family:Arial,Helvetica,sans-serif" font-size="14" fill="#111827">income</text><rect x="320" y="430" width="173.99008446414345" height="24" rx="4" fill="#2f4b7c" opacity="0.88"/><text x="501.9900844641435" y="447" style="font-family:Arial,Helvetica,sans-serif" font-size="12" fill="#374151">0.026</text><text x="20" y="483" style="font-family:Arial,Helvetica,sans-serif" font-size="14" fill="#111827">HHstatin</text><rect x="320" y="466" width="165.8990039799707" height="24" rx="4" fill="#2f4b7c" opacity="0.88"/><text x="493.8990039799707" y="483" style="font-family:Arial,Helvetica,sans-serif" font-size="12" fill="#374151">0.025</text></svg>