<svg xmlns="http://www.w3.org/2000/svg" width="980" height="560" viewBox="0 0 980 560">
<rect width="100%" height="100%" fill="#fbf8f2"/><text x="220" y="34" font-family="Arial, sans-serif" font-size="22" font-weight="700" fill="#1f2937">Top Missing Fields in Client.csv</text><text x="208" y="85.5" text-anchor="end" font-family="Arial, sans-serif" font-size="13" fill="#374151">numbcars</text><rect x="220" y="68.0" width="720.0" height="27.0" rx="8" fill="#7c3aed"/><text x="950.0" y="85.5" font-family="Arial, sans-serif" font-size="12" fill="#111827">49,366</text><text x="208" y="128.5" text-anchor="end" font-family="Arial, sans-serif" font-size="13" fill="#374151">dwllsize</text><rect x="220" y="111.0" width="558.7" height="27.0" rx="8" fill="#7c3aed"/><text x="788.7" y="128.5" font-family="Arial, sans-serif" font-size="12" fill="#111827">38,308</text><text x="208" y="171.5" text-anchor="end" font-family="Arial, sans-serif" font-size="13" fill="#374151">HHstatin</text><rect x="220" y="154.0" width="553.1" height="27.0" rx="8" fill="#7c3aed"/><text x="783.1" y="171.5" font-family="Arial, sans-serif" font-size="12" fill="#111827">37,923</text><text x="208" y="214.5" text-anchor="end" font-family="Arial, sans-serif" font-size="13" fill="#374151">ownrent</text><rect x="220" y="197.0" width="491.6" height="27.0" rx="8" fill="#7c3aed"/><text x="721.6" y="214.5" font-family="Arial, sans-serif" font-size="12" fill="#111827">33,706</text><text x="208" y="257.5" text-anchor="end" font-family="Arial, sans-serif" font-size="13" fill="#374151">dwlltype</text><rect x="220" y="240.0" width="465.4" height="27.0" rx="8" fill="#7c3aed"/><text x="695.4" y="257.5" font-family="Arial, sans-serif" font-size="12" fill="#111827">31,909</text><text x="208" y="300.5" text-anchor="end" font-family="Arial, sans-serif" font-size="13" fill="#374151">lor</text><rect x="220" y="283.0" width="440.3" height="27.0" rx="8" fill="#7c3aed"/><text x="670.3" y="300.5" font-family="Arial, sans-serif" font-size="12" fill="#111827">30,190</text><text x="208" y="343.5" text-anchor="end" font-family="Arial, sans-serif" font-size="13" fill="#374151">income</text><rect x="220" y="326.0" width="371.0" height="27.0" rx="8" fill="#7c3aed"/><text x="601.0" y="343.5" font-family="Arial, sans-serif" font-size="12" fill="#111827">25,436</text><text x="208" y="386.5" text-anchor="end" font-family="Arial, sans-serif" font-size="13" fill="#374151">adults</text><rect x="220" y="369.0" width="335.7" height="27.0" rx="8" fill="#7c3aed"/><text x="565.7" y="386.5" font-family="Arial, sans-serif" font-size="12" fill="#111827">23,019</text><text x="208" y="429.5" text-anchor="end" font-family="Arial, sans-serif" font-size="13" fill="#374151">infobase</text><rect x="220" y="412.0" width="322.0" height="27.0" rx="8" fill="#7c3aed"/><text x="552.0" y="429.5" font-family="Arial, sans-serif" font-size="12" fill="#111827">22,079</text><text x="208" y="472.5" text-anchor="end" font-family="Arial, sans-serif" font-size="13" fill="#374151">prizm_social_one</text><rect x="220" y="455.0" width="107.8" height="27.0" rx="8" fill="#7c3aed"/><text x="337.8" y="472.5" font-family="Arial, sans-serif" font-size="12" fill="#111827">7,388</text><line x1="220" y1="490" x2="940" y2="490" stroke="#d1d5db" stroke-width="1"/></svg>
