<svg xmlns="http://www.w3.org/2000/svg" width="980" height="560" viewBox="0 0 980 560">
<rect width="100%" height="100%" fill="#fbf8f2"/><text x="220" y="34" font-family="Arial, sans-serif" font-size="22" font-weight="700" fill="#1f2937">Top Missing Fields in Record.csv</text><text x="208" y="85.5" text-anchor="end" font-family="Arial, sans-serif" font-size="13" fill="#374151">change_mou</text><rect x="220" y="68.0" width="720.0" height="27.0" rx="8" fill="#b45309"/><text x="950.0" y="85.5" font-family="Arial, sans-serif" font-size="12" fill="#111827">891</text><text x="208" y="128.5" text-anchor="end" font-family="Arial, sans-serif" font-size="13" fill="#374151">change_rev</text><rect x="220" y="111.0" width="720.0" height="27.0" rx="8" fill="#b45309"/><text x="950.0" y="128.5" font-family="Arial, sans-serif" font-size="12" fill="#111827">891</text><text x="208" y="171.5" text-anchor="end" font-family="Arial, sans-serif" font-size="13" fill="#374151">rev_Mean</text><rect x="220" y="154.0" width="288.5" height="27.0" rx="8" fill="#b45309"/><text x="518.5" y="171.5" font-family="Arial, sans-serif" font-size="12" fill="#111827">357</text><text x="208" y="214.5" text-anchor="end" font-family="Arial, sans-serif" font-size="13" fill="#374151">mou_Mean</text><rect x="220" y="197.0" width="288.5" height="27.0" rx="8" fill="#b45309"/><text x="518.5" y="214.5" font-family="Arial, sans-serif" font-size="12" fill="#111827">357</text><text x="208" y="257.5" text-anchor="end" font-family="Arial, sans-serif" font-size="13" fill="#374151">totmrc_Mean</text><rect x="220" y="240.0" width="288.5" height="27.0" rx="8" fill="#b45309"/><text x="518.5" y="257.5" font-family="Arial, sans-serif" font-size="12" fill="#111827">357</text><text x="208" y="300.5" text-anchor="end" font-family="Arial, sans-serif" font-size="13" fill="#374151">da_Mean</text><rect x="220" y="283.0" width="288.5" height="27.0" rx="8" fill="#b45309"/><text x="518.5" y="300.5" font-family="Arial, sans-serif" font-size="12" fill="#111827">357</text><text x="208" y="343.5" text-anchor="end" font-family="Arial, sans-serif" font-size="13" fill="#374151">ovrmou_Mean</text><rect x="220" y="326.0" width="288.5" height="27.0" rx="8" fill="#b45309"/><text x="518.5" y="343.5" font-family="Arial, sans-serif" font-size="12" fill="#111827">357</text><text x="208" y="386.5" text-anchor="end" font-family="Arial, sans-serif" font-size="13" fill="#374151">ovrrev_Mean</text><rect x="220" y="369.0" width="288.5" height="27.0" rx="8" fill="#b45309"/><text x="518.5" y="386.5" font-family="Arial, sans-serif" font-size="12" fill="#111827">357</text><text x="208" y="429.5" text-anchor="end" font-family="Arial, sans-serif" font-size="13" fill="#374151">vceovr_Mean</text><rect x="220" y="412.0" width="288.5" height="27.0" rx="8" fill="#b45309"/><text x="518.5" y="429.5" font-family="Arial, sans-serif" font-size="12" fill="#111827">357</text><text x="208" y="472.5" text-anchor="end" font-family="Arial, sans-serif" font-size="13" fill="#374151">datovr_Mean</text><rect x="220" y="455.0" width="288.5" height="27.0" rx="8" fill="#b45309"/><text x="518.5" y="472.5" font-family="Arial, sans-serif" font-size="12" fill="#111827">357</text><line x1="220" y1="490" x2="940" y2="490" stroke="#d1d5db" stroke-width="1"/></svg>
