<svg xmlns="http://www.w3.org/2000/svg" width="900" height="520" viewBox="0 0 900 520">
<rect width="100%" height="100%" fill="#fbf8f2"/><text x="70" y="34" font-family="Arial, sans-serif" font-size="22" font-weight="700" fill="#1f2937">Row Counts: Source Tables and Merged Table</text><line x1="70" y1="430.0" x2="870" y2="430.0" stroke="#e5e7eb" stroke-width="1"/><text x="60" y="434.0" text-anchor="end" font-family="Arial, sans-serif" font-size="12" fill="#6b7280">0</text><line x1="70" y1="356.0" x2="870" y2="356.0" stroke="#e5e7eb" stroke-width="1"/><text x="60" y="360.0" text-anchor="end" font-family="Arial, sans-serif" font-size="12" fill="#6b7280">20,000</text><line x1="70" y1="282.0" x2="870" y2="282.0" stroke="#e5e7eb" stroke-width="1"/><text x="60" y="286.0" text-anchor="end" font-family="Arial, sans-serif" font-size="12" fill="#6b7280">40,000</text><line x1="70" y1="208.0" x2="870" y2="208.0" stroke="#e5e7eb" stroke-width="1"/><text x="60" y="212.0" text-anchor="end" font-family="Arial, sans-serif" font-size="12" fill="#6b7280">60,000</text><line x1="70" y1="134.0" x2="870" y2="134.0" stroke="#e5e7eb" stroke-width="1"/><text x="60" y="138.0" text-anchor="end" font-family="Arial, sans-serif" font-size="12" fill="#6b7280">80,000</text><line x1="70" y1="60.0" x2="870" y2="60.0" stroke="#e5e7eb" stroke-width="1"/><text x="60" y="64.0" text-anchor="end" font-family="Arial, sans-serif" font-size="12" fill="#6b7280">100,000</text><rect x="70.0" y="60.0" width="250.7" height="370.0" rx="8" fill="#0f766e"/><text x="195.3" y="52.0" text-anchor="middle" font-family="Arial, sans-serif" font-size="12" fill="#111827">100,000</text><text x="195.3" y="478" text-anchor="middle" font-family="Arial, sans-serif" font-size="12" fill="#374151">Client</text><rect x="344.7" y="60.0" width="250.7" height="370.0" rx="8" fill="#c2410c"/><text x="470.0" y="52.0" text-anchor="middle" font-family="Arial, sans-serif" font-size="12" fill="#111827">100,000</text><text x="470.0" y="478" text-anchor="middle" font-family="Arial, sans-serif" font-size="12" fill="#374151">Record</text><rect x="619.3" y="60.0" width="250.7" height="370.0" rx="8" fill="#2563eb"/><text x="744.7" y="52.0" text-anchor="middle" font-family="Arial, sans-serif" font-size="12" fill="#111827">100,000</text><text x="744.7" y="478" text-anchor="middle" font-family="Arial, sans-serif" font-size="12" fill="#374151">Merged</text></svg>
