<svg xmlns="http://www.w3.org/2000/svg" width="900" height="520" viewBox="0 0 900 520">
<rect width="100%" height="100%" fill="#fbf8f2"/><text x="70" y="34" font-family="Arial, sans-serif" font-size="22" font-weight="700" fill="#1f2937">Target Balance: churn in Record.csv</text><line x1="70" y1="430.0" x2="870" y2="430.0" stroke="#e5e7eb" stroke-width="1"/><text x="60" y="434.0" text-anchor="end" font-family="Arial, sans-serif" font-size="12" fill="#6b7280">0</text><line x1="70" y1="356.0" x2="870" y2="356.0" stroke="#e5e7eb" stroke-width="1"/><text x="60" y="360.0" text-anchor="end" font-family="Arial, sans-serif" font-size="12" fill="#6b7280">10,200</text><line x1="70" y1="282.0" x2="870" y2="282.0" stroke="#e5e7eb" stroke-width="1"/><text x="60" y="286.0" text-anchor="end" font-family="Arial, sans-serif" font-size="12" fill="#6b7280">20,400</text><line x1="70" y1="208.0" x2="870" y2="208.0" stroke="#e5e7eb" stroke-width="1"/><text x="60" y="212.0" text-anchor="end" font-family="Arial, sans-serif" font-size="12" fill="#6b7280">30,600</text><line x1="70" y1="134.0" x2="870" y2="134.0" stroke="#e5e7eb" stroke-width="1"/><text x="60" y="138.0" text-anchor="end" font-family="Arial, sans-serif" font-size="12" fill="#6b7280">40,800</text><line x1="70" y1="60.0" x2="870" y2="60.0" stroke="#e5e7eb" stroke-width="1"/><text x="60" y="64.0" text-anchor="end" font-family="Arial, sans-serif" font-size="12" fill="#6b7280">51,000</text><rect x="70.0" y="64.1" width="388.0" height="365.9" rx="8" fill="#2563eb"/><text x="264.0" y="56.1" text-anchor="middle" font-family="Arial, sans-serif" font-size="12" fill="#111827">50,438</text><text x="264.0" y="468" text-anchor="middle" font-family="Arial, sans-serif" font-size="12" fill="#374151">Stayed</text><text x="264.0" y="486" text-anchor="middle" font-family="Arial, sans-serif" font-size="12" fill="#374151">(0)</text><rect x="482.0" y="70.4" width="388.0" height="359.6" rx="8" fill="#dc2626"/><text x="676.0" y="62.4" text-anchor="middle" font-family="Arial, sans-serif" font-size="12" fill="#111827">49,562</text><text x="676.0" y="468" text-anchor="middle" font-family="Arial, sans-serif" font-size="12" fill="#374151">Churned</text><text x="676.0" y="486" text-anchor="middle" font-family="Arial, sans-serif" font-size="12" fill="#374151">(1)</text></svg>
