<svg xmlns="http://www.w3.org/2000/svg" width="1400" height="900" viewBox="0 0 1400 900">
<rect x="0" y="0" width="100%" height="100%" fill="#ffffff"/>
<text x="24" y="40" font-family="Arial, sans-serif" font-size="24" font-weight="700" fill="#111827">Top Numeric Features by Outlier Rate</text>
<text x="268" y="104.0" font-family="Arial, sans-serif" font-size="12" text-anchor="end" fill="#111827">change_rev</text>
<rect x="280" y="77.8" width="1080.0" height="36.4" fill="#f59e0b" opacity="0.85" rx="3"/>
<text x="1368.0" y="104.0" font-family="Arial, sans-serif" font-size="11" fill="#374151">26.0%</text>
<text x="268" y="156.0" font-family="Arial, sans-serif" font-size="12" text-anchor="end" fill="#111827">roam_Mean</text>
<rect x="280" y="129.8" width="787.0" height="36.4" fill="#f59e0b" opacity="0.85" rx="3"/>
<text x="1075.0" y="156.0" font-family="Arial, sans-serif" font-size="11" fill="#374151">19.0%</text>
<text x="268" y="208.0" font-family="Arial, sans-serif" font-size="12" text-anchor="end" fill="#111827">plcd_dat_Mean</text>
<rect x="280" y="181.8" width="621.1" height="36.4" fill="#f59e0b" opacity="0.85" rx="3"/>
<text x="909.1" y="208.0" font-family="Arial, sans-serif" font-size="11" fill="#374151">15.0%</text>
<text x="268" y="260.0" font-family="Arial, sans-serif" font-size="12" text-anchor="end" fill="#111827">callwait_Mean</text>
<rect x="280" y="233.8" width="593.1" height="36.4" fill="#f59e0b" opacity="0.85" rx="3"/>
<text x="881.1" y="260.0" font-family="Arial, sans-serif" font-size="11" fill="#374151">14.3%</text>
<text x="268" y="312.0" font-family="Arial, sans-serif" font-size="12" text-anchor="end" fill="#111827">cc_mou_Mean</text>
<rect x="280" y="285.8" width="591.5" height="36.4" fill="#f59e0b" opacity="0.85" rx="3"/>
<text x="879.5" y="312.0" font-family="Arial, sans-serif" font-size="11" fill="#374151">14.3%</text>
<text x="268" y="364.0" font-family="Arial, sans-serif" font-size="12" text-anchor="end" fill="#111827">datovr_Mean</text>
<rect x="280" y="337.8" width="568.9" height="36.4" fill="#f59e0b" opacity="0.85" rx="3"/>
<text x="856.9" y="364.0" font-family="Arial, sans-serif" font-size="11" fill="#374151">13.7%</text>
<text x="268" y="416.0" font-family="Arial, sans-serif" font-size="12" text-anchor="end" fill="#111827">change_mou</text>
<rect x="280" y="389.8" width="564.3" height="36.4" fill="#f59e0b" opacity="0.85" rx="3"/>
<text x="852.3" y="416.0" font-family="Arial, sans-serif" font-size="11" fill="#374151">13.6%</text>
<text x="268" y="468.0" font-family="Arial, sans-serif" font-size="12" text-anchor="end" fill="#111827">ccrndmou_Mean</text>
<rect x="280" y="441.8" width="557.9" height="36.4" fill="#f59e0b" opacity="0.85" rx="3"/>
<text x="845.9" y="468.0" font-family="Arial, sans-serif" font-size="11" fill="#374151">13.5%</text>
<text x="268" y="520.0" font-family="Arial, sans-serif" font-size="12" text-anchor="end" fill="#111827">comp_dat_Mean</text>
<rect x="280" y="493.8" width="555.3" height="36.4" fill="#f59e0b" opacity="0.85" rx="3"/>
<text x="843.3" y="520.0" font-family="Arial, sans-serif" font-size="11" fill="#374151">13.4%</text>
<text x="268" y="572.0" font-family="Arial, sans-serif" font-size="12" text-anchor="end" fill="#111827">mou_cdat_Mean</text>
<rect x="280" y="545.8" width="555.3" height="36.4" fill="#f59e0b" opacity="0.85" rx="3"/>
<text x="843.3" y="572.0" font-family="Arial, sans-serif" font-size="11" fill="#374151">13.4%</text>
<text x="268" y="624.0" font-family="Arial, sans-serif" font-size="12" text-anchor="end" fill="#111827">custcare_Mean</text>
<rect x="280" y="597.8" width="527.0" height="36.4" fill="#f59e0b" opacity="0.85" rx="3"/>
<text x="815.0" y="624.0" font-family="Arial, sans-serif" font-size="11" fill="#374151">12.7%</text>
<text x="268" y="676.0" font-family="Arial, sans-serif" font-size="12" text-anchor="end" fill="#111827">ovrmou_Mean</text>
<rect x="280" y="649.8" width="479.6" height="36.4" fill="#f59e0b" opacity="0.85" rx="3"/>
<text x="767.6" y="676.0" font-family="Arial, sans-serif" font-size="11" fill="#374151">11.6%</text>
<text x="268" y="728.0" font-family="Arial, sans-serif" font-size="12" text-anchor="end" fill="#111827">vceovr_Mean</text>
<rect x="280" y="701.8" width="479.4" height="36.4" fill="#f59e0b" opacity="0.85" rx="3"/>
<text x="767.4" y="728.0" font-family="Arial, sans-serif" font-size="11" fill="#374151">11.6%</text>
<text x="268" y="780.0" font-family="Arial, sans-serif" font-size="12" text-anchor="end" fill="#111827">ovrrev_Mean</text>
<rect x="280" y="753.8" width="470.9" height="36.4" fill="#f59e0b" opacity="0.85" rx="3"/>
<text x="758.9" y="780.0" font-family="Arial, sans-serif" font-size="11" fill="#374151">11.4%</text>
<text x="268" y="832.0" font-family="Arial, sans-serif" font-size="12" text-anchor="end" fill="#111827">mouiwylisv_Mean</text>
<rect x="280" y="805.8" width="469.2" height="36.4" fill="#f59e0b" opacity="0.85" rx="3"/>
<text x="757.2" y="832.0" font-family="Arial, sans-serif" font-size="11" fill="#374151">11.3%</text>
</svg>